<?xml version="1.0" encoding="UTF-8" standalone="no"?>
<svg
   xmlns:dc="http://purl.org/dc/elements/1.1/"
   xmlns:cc="http://creativecommons.org/ns#"
   xmlns:rdf="http://www.w3.org/1999/02/22-rdf-syntax-ns#"
   xmlns:svg="http://www.w3.org/2000/svg"
   xmlns="http://www.w3.org/2000/svg"
   xmlns:sodipodi="http://sodipodi.sourceforge.net/DTD/sodipodi-0.dtd"
   xmlns:inkscape="http://www.inkscape.org/namespaces/inkscape"
   version="1.1"
   width="167.82079"
   height="352"
   viewBox="0 0 17481.332 36666.67"
   id="svg1666"
   sodipodi:docname="pot_offset.svg"
   inkscape:version="1.0.2 (e86c870879, 2021-01-15)">
  <metadata
     id="metadata1672">
    <rdf:RDF>
      <cc:Work
         rdf:about="">
        <dc:format>image/svg+xml</dc:format>
        <dc:type
           rdf:resource="http://purl.org/dc/dcmitype/StillImage" />
        <dc:title>SVG Picture created as Schematic.svg date 2021/11/17 14:02:31 </dc:title>
      </cc:Work>
    </rdf:RDF>
  </metadata>
  <defs
     id="defs1670" />
  <sodipodi:namedview
     pagecolor="#f5f4ef"
     bordercolor="#666666"
     borderopacity="1"
     objecttolerance="10"
     gridtolerance="10"
     guidetolerance="10"
     inkscape:pageopacity="1"
     inkscape:pageshadow="2"
     inkscape:window-width="2556"
     inkscape:window-height="1383"
     id="namedview1668"
     showgrid="false"
     lock-margins="true"
     fit-margin-top="16"
     fit-margin-left="16"
     fit-margin-right="16"
     fit-margin-bottom="16"
     units="px"
     inkscape:zoom="2.1184839"
     inkscape:cx="250.04948"
     inkscape:cy="222.61954"
     inkscape:window-x="0"
     inkscape:window-y="0"
     inkscape:window-maximized="1"
     inkscape:current-layer="svg1666" />
  <title
     id="title860">SVG Picture created as Schematic.svg date 2021/11/17 14:02:31 </title>
  <desc
     id="desc862">Picture generated by Eeschema-SVG </desc>
  <g
     id="g1815"
     transform="matrix(1.8422924,0,0,1.8422924,-86779.84,-46594.025)">
    <g
       style="fill:#840000;fill-opacity:0;stroke:#840000;stroke-width:100;stroke-linecap:round;stroke-linejoin:round;stroke-opacity:1"
       id="g1412">
      <circle
         cx="50000"
         cy="27750"
         r="750"
         id="circle1410" />
    </g>
    <g
       style="fill:#840000;fill-opacity:0;stroke:#840000;stroke-width:200;stroke-linecap:round;stroke-linejoin:round;stroke-opacity:1"
       id="g1416">
      <path
         style="fill:none;fill-opacity:0;stroke:#840000;stroke-width:200;stroke-linecap:round;stroke-linejoin:round;stroke-opacity:1"
         d="m 49550,27750 h 900"
         id="path1414" />
    </g>
    <g
       style="fill:#840000;fill-opacity:0;stroke:#840000;stroke-width:60;stroke-linecap:round;stroke-linejoin:round;stroke-opacity:1"
       id="g1420">
      <path
         style="fill:none;fill-opacity:0;stroke:#840000;stroke-width:60;stroke-linecap:round;stroke-linejoin:round;stroke-opacity:1"
         d="m 50000,29000 v -500"
         id="path1418" />
    </g>
    <g
       style="fill:#840000;fill-opacity:0;stroke:#840000;stroke-width:200;stroke-linecap:round;stroke-linejoin:round;stroke-opacity:1"
       id="g1424">
      <path
         style="fill:none;fill-opacity:0;stroke:#840000;stroke-width:200;stroke-linecap:round;stroke-linejoin:round;stroke-opacity:1"
         d="m 50000,28200 v -900"
         id="path1422" />
    </g>
    <g
       style="fill:#006464;fill-opacity:0;stroke:#006464;stroke-width:60;stroke-linecap:round;stroke-linejoin:round;stroke-opacity:1"
       id="g1444">
      <text
         x="50000"
         y="26750"
         textLength="2107.6377"
         font-size="666.654px"
         lengthAdjust="spacingAndGlyphs"
         text-anchor="middle"
         opacity="0"
         id="text1428">+VDC</text>
      <g
         class="stroked-text"
         id="g1442">
        <desc
           id="desc1430">+VDC</desc>
        <path
           d="m 49095,26535 h 381"
           id="path1432" />
        <path
           d="m 49285,26726 v -381"
           id="path1434" />
        <path
           d="m 49642,26226 167,500 167,-500"
           id="path1436" />
        <path
           d="m 50142,26726 v -500 h 119 l 72,24 47,47 24,48 24,95 v 71 l -24,96 -24,47 -47,48 -72,24 h -119"
           id="path1438" />
        <path
           d="m 50928,26678 -24,24 -71,24 h -48 l -71,-24 -48,-48 -24,-47 -23,-96 v -71 l 23,-95 24,-48 48,-47 71,-24 h 48 l 71,24 24,23"
           id="path1440" />
      </g>
    </g>
    <g
       style="fill:#006464;fill-opacity:0;stroke:#006464;stroke-width:60;stroke-linecap:round;stroke-linejoin:round;stroke-opacity:1"
       id="g1478">
      <g
         id="g1448" />
      <g
         style="fill:#840000;fill-opacity:0;stroke:#840000;stroke-width:60;stroke-linecap:round;stroke-linejoin:round;stroke-opacity:1"
         id="g1450" />
      <g
         style="fill:#840000;fill-opacity:0;stroke:#840000;stroke-width:100;stroke-linecap:round;stroke-linejoin:round;stroke-opacity:1"
         id="g1454">
        <rect
           x="49600"
           y="30000"
           width="800"
           height="2000"
           rx="0.000000"
           id="rect1452" />
      </g>
      <g
         style="fill:#840000;fill-opacity:0;stroke:#840000;stroke-width:60;stroke-linecap:round;stroke-linejoin:round;stroke-opacity:1"
         id="g1460">
        <path
           d="m 50000,32000 v 500"
           id="path1456" />
        <path
           d="m 50000,30000 v -500"
           id="path1458" />
      </g>
      <g
         style="fill:#006464;fill-opacity:0;stroke:#006464;stroke-width:60;stroke-linecap:round;stroke-linejoin:round;stroke-opacity:1"
         id="g1476">
        <text
           x="48480.629"
           y="31499.922"
           textLength="1036.1812"
           font-size="666.654px"
           lengthAdjust="spacingAndGlyphs"
           text-anchor="middle"
           opacity="0"
           id="text1462">R1</text>
        <g
           class="stroked-text"
           id="g1474">
          <desc
             id="desc1464">R1</desc>
          <path
             d="m 48397,31476 -167,-239"
             id="path1466" />
          <path
             d="m 48111,31476 v -500 h 191 l 47,23 24,24 24,48 v 71 l -24,48 -24,24 -47,23 h -191"
             id="path1468" />
          <path
             d="m 48873,31476 h -286"
             id="path1470" />
          <path
             d="m 48730,31476 v -500 l -48,71 -47,48 -48,23"
             id="path1472" />
        </g>
      </g>
    </g>
    <g
       style="fill:#006464;fill-opacity:0;stroke:#006464;stroke-width:60;stroke-linecap:round;stroke-linejoin:round;stroke-opacity:1"
       id="g1558">
      <g
         id="g1480" />
      <g
         style="fill:#840000;fill-opacity:0;stroke:#840000;stroke-width:60;stroke-linecap:round;stroke-linejoin:round;stroke-opacity:1"
         id="g1482" />
      <g
         style="fill:#840000;fill-opacity:0;stroke:#840000;stroke-width:100;stroke-linecap:round;stroke-linejoin:round;stroke-opacity:1"
         id="g1486">
        <rect
           x="49600"
           y="34000"
           width="800"
           height="2000"
           rx="0.000000"
           id="rect1484" />
      </g>
      <g
         style="fill:#840000;fill-opacity:0;stroke:#840000;stroke-width:60;stroke-linecap:round;stroke-linejoin:round;stroke-opacity:1"
         id="g1490">
        <path
           style="fill:none;fill-opacity:0;stroke:#840000;stroke-width:60;stroke-linecap:round;stroke-linejoin:round;stroke-opacity:1"
           d="m 51000,35000 h -400"
           id="path1488" />
      </g>
      <g
         style="fill:#840000;fill-opacity:1;stroke:#840000;stroke-width:60;stroke-linecap:round;stroke-linejoin:round;stroke-opacity:1"
         id="g1494">
        <path
           style="fill:#840000;fill-opacity:1;fill-rule:evenodd;stroke:#840000;stroke-width:60;stroke-linecap:round;stroke-linejoin:round;stroke-opacity:1"
           d="m 50450,35000 450,-200 v 400 z"
           id="path1492" />
      </g>
      <g
         style="fill:#840000;fill-opacity:0;stroke:#840000;stroke-width:60;stroke-linecap:round;stroke-linejoin:round;stroke-opacity:1"
         id="g1498">
        <path
           d="m 50000,34000 v -500"
           id="path1496" />
      </g>
      <g
         style="fill:#a90000;fill-opacity:0;stroke:#a90000;stroke-width:60;stroke-linecap:round;stroke-linejoin:round;stroke-opacity:1"
         id="g1512">
        <g
           transform="rotate(-90,49900,33750)"
           id="g1502">
          <text
             x="49900"
             y="33750"
             textLength="536.18109"
             font-size="666.654px"
             lengthAdjust="spacingAndGlyphs"
             text-anchor="middle"
             opacity="0"
             id="text1500">1</text>
        </g>
        <g
           class="stroked-text"
           id="g1510">
          <desc
             id="desc1504">1</desc>
          <path
             d="m 49876,33607 v 285"
             id="path1506" />
          <path
             d="m 49876,33750 h -500 l 71,47 48,48 24,47"
             id="path1508" />
        </g>
      </g>
      <g
         style="fill:#840000;fill-opacity:0;stroke:#840000;stroke-width:60;stroke-linecap:round;stroke-linejoin:round;stroke-opacity:1"
         id="g1516">
        <path
           d="m 51000,35000 h 500"
           id="path1514" />
      </g>
      <g
         style="fill:#a90000;fill-opacity:0;stroke:#a90000;stroke-width:60;stroke-linecap:round;stroke-linejoin:round;stroke-opacity:1"
         id="g1526">
        <text
           x="51250"
           y="34900"
           textLength="536.18109"
           font-size="666.654px"
           lengthAdjust="spacingAndGlyphs"
           text-anchor="middle"
           opacity="0"
           id="text1518">2</text>
        <g
           class="stroked-text"
           id="g1524">
          <desc
             id="desc1520">2</desc>
          <path
             d="m 51107,34423 23,-23 48,-24 h 119 l 48,24 24,23 23,48 v 48 l -23,71 -286,286 h 309"
             id="path1522" />
        </g>
      </g>
      <g
         style="fill:#840000;fill-opacity:0;stroke:#840000;stroke-width:60;stroke-linecap:round;stroke-linejoin:round;stroke-opacity:1"
         id="g1530">
        <path
           d="m 50000,36000 v 500"
           id="path1528" />
      </g>
      <g
         style="fill:#a90000;fill-opacity:0;stroke:#a90000;stroke-width:60;stroke-linecap:round;stroke-linejoin:round;stroke-opacity:1"
         id="g1542">
        <g
           transform="rotate(-90,49900,36250)"
           id="g1534">
          <text
             x="49900"
             y="36250"
             textLength="536.18109"
             font-size="666.654px"
             lengthAdjust="spacingAndGlyphs"
             text-anchor="middle"
             opacity="0"
             id="text1532">3</text>
        </g>
        <g
           class="stroked-text"
           id="g1540">
          <desc
             id="desc1536">3</desc>
          <path
             d="m 49376,36416 v -309 l 190,166 v -71 l 24,-48 24,-24 47,-23 h 119 l 48,23 24,24 24,48 v 143 l -24,47 -24,24"
             id="path1538" />
        </g>
      </g>
      <g
         style="fill:#006464;fill-opacity:0;stroke:#006464;stroke-width:60;stroke-linecap:round;stroke-linejoin:round;stroke-opacity:1"
         id="g1556">
        <text
           x="48547.285"
           y="35499.961"
           textLength="902.87402"
           font-size="666.654px"
           lengthAdjust="spacingAndGlyphs"
           text-anchor="middle"
           opacity="0"
           id="text1544">R_{V}</text>
        <g
           class="stroked-text"
           id="g1554">
          <desc
             id="desc1546">R_{V}</desc>
          <path
             d="m 48530,35476 -167,-238"
             id="path1548" />
          <path
             d="m 48244,35476 v -500 h 191 l 47,23 24,24 24,48 v 71 l -24,48 -24,24 -47,24 h -191"
             id="path1550" />
          <path
             d="m 48663,35130 134,400 133,-400"
             id="path1552" />
        </g>
      </g>
    </g>
    <g
       style="fill:#006464;fill-opacity:0;stroke:#006464;stroke-width:60;stroke-linecap:round;stroke-linejoin:round;stroke-opacity:1"
       id="g1592">
      <g
         id="g1560" />
      <g
         style="fill:#840000;fill-opacity:0;stroke:#840000;stroke-width:60;stroke-linecap:round;stroke-linejoin:round;stroke-opacity:1"
         id="g1562" />
      <g
         style="fill:#840000;fill-opacity:0;stroke:#840000;stroke-width:100;stroke-linecap:round;stroke-linejoin:round;stroke-opacity:1"
         id="g1566">
        <circle
           cx="50000"
           cy="42250"
           r="750"
           id="circle1564" />
      </g>
      <g
         style="fill:#840000;fill-opacity:0;stroke:#840000;stroke-width:200;stroke-linecap:round;stroke-linejoin:round;stroke-opacity:1"
         id="g1570">
        <path
           style="fill:none;fill-opacity:0;stroke:#840000;stroke-width:200;stroke-linecap:round;stroke-linejoin:round;stroke-opacity:1"
           d="m 50450,42250 h -900"
           id="path1568" />
      </g>
      <g
         style="fill:#840000;fill-opacity:0;stroke:#840000;stroke-width:60;stroke-linecap:round;stroke-linejoin:round;stroke-opacity:1"
         id="g1574">
        <path
           style="fill:none;fill-opacity:0;stroke:#840000;stroke-width:60;stroke-linecap:round;stroke-linejoin:round;stroke-opacity:1"
           d="m 50000,41000 v 500"
           id="path1572" />
      </g>
      <g
         style="fill:#006464;fill-opacity:0;stroke:#006464;stroke-width:60;stroke-linecap:round;stroke-linejoin:round;stroke-opacity:1"
         id="g1590">
        <text
           x="50000"
           y="44249.961"
           textLength="2107.6377"
           font-size="666.654px"
           lengthAdjust="spacingAndGlyphs"
           text-anchor="middle"
           opacity="0"
           id="text1576">-VDC</text>
        <g
           class="stroked-text"
           id="g1588">
          <desc
             id="desc1578">-VDC</desc>
          <path
             d="m 49095,44035 h 381"
             id="path1580" />
          <path
             d="m 49642,43726 167,500 167,-500"
             id="path1582" />
          <path
             d="m 50142,44226 v -500 h 119 l 72,23 47,48 24,48 24,95 v 71 l -24,96 -24,47 -47,48 -72,24 h -119"
             id="path1584" />
          <path
             d="m 50928,44178 -24,24 -71,24 h -48 l -71,-24 -48,-48 -24,-47 -23,-96 v -71 l 23,-95 24,-48 48,-48 71,-23 h 48 l 71,23 24,24"
             id="path1586" />
        </g>
      </g>
    </g>
    <g
       style="fill:#006464;fill-opacity:0;stroke:#006464;stroke-width:60;stroke-linecap:round;stroke-linejoin:round;stroke-opacity:1"
       id="g1622">
      <g
         id="g1594" />
      <g
         style="fill:#840000;fill-opacity:0;stroke:#840000;stroke-width:60;stroke-linecap:round;stroke-linejoin:round;stroke-opacity:1"
         id="g1596" />
      <g
         style="fill:#840000;fill-opacity:0;stroke:#840000;stroke-width:100;stroke-linecap:round;stroke-linejoin:round;stroke-opacity:1"
         id="g1600">
        <rect
           x="49600"
           y="38000"
           width="800"
           height="2000"
           rx="0.000000"
           id="rect1598" />
      </g>
      <g
         style="fill:#840000;fill-opacity:0;stroke:#840000;stroke-width:60;stroke-linecap:round;stroke-linejoin:round;stroke-opacity:1"
         id="g1606">
        <path
           d="m 50000,40000 v 500"
           id="path1602" />
        <path
           d="m 50000,38000 v -500"
           id="path1604" />
      </g>
      <g
         style="fill:#006464;fill-opacity:0;stroke:#006464;stroke-width:60;stroke-linecap:round;stroke-linejoin:round;stroke-opacity:1"
         id="g1620">
        <text
           x="48480.629"
           y="39499.922"
           textLength="1036.1812"
           font-size="666.654px"
           lengthAdjust="spacingAndGlyphs"
           text-anchor="middle"
           opacity="0"
           id="text1608">R2</text>
        <g
           class="stroked-text"
           id="g1618">
          <desc
             id="desc1610">R2</desc>
          <path
             d="m 48397,39476 -167,-239"
             id="path1612" />
          <path
             d="m 48111,39476 v -500 h 191 l 47,23 24,24 24,48 v 71 l -24,48 -24,24 -47,23 h -191"
             id="path1614" />
          <path
             d="m 48587,39023 24,-24 48,-23 h 119 l 47,23 24,24 24,48 v 47 l -24,72 -286,286 h 310"
             id="path1616" />
        </g>
      </g>
    </g>
    <g
       style="fill:#840000;fill-opacity:0;stroke:#840000;stroke-width:60;stroke-linecap:round;stroke-linejoin:round;stroke-opacity:1"
       id="g1652">
      <text
         x="52150"
         y="35250"
         textLength="2893.3464"
         font-size="666.654px"
         lengthAdjust="spacingAndGlyphs"
         text-anchor="start"
         opacity="0"
         id="text1628">OUTPUT</text>
      <g
         class="stroked-text"
         id="g1648">
        <desc
           id="desc1630">OUTPUT</desc>
        <path
           d="m 52394,34726 h 95 l 48,24 47,47 24,95 v 167 l -24,95 -47,48 -48,24 h -95 l -48,-24 -47,-48 -24,-95 v -167 l 24,-95 47,-47 48,-24"
           id="path1632" />
        <path
           d="m 52822,34726 v 404 l 24,48 24,24 48,24 h 95 l 47,-24 24,-24 24,-48 v -404"
           id="path1634" />
        <path
           d="m 53275,34726 h 285"
           id="path1636" />
        <path
           d="m 53418,35226 v -500"
           id="path1638" />
        <path
           d="m 53727,35226 v -500 h 191 l 47,24 24,23 24,48 v 71 l -24,48 -24,24 -47,24 h -191"
           id="path1640" />
        <path
           d="m 54227,34726 v 404 l 24,48 24,24 47,24 h 96 l 47,-24 24,-24 24,-48 v -404"
           id="path1642" />
        <path
           d="m 54680,34726 h 285"
           id="path1644" />
        <path
           d="m 54822,35226 v -500"
           id="path1646" />
      </g>
      <path
         style="fill:none;fill-opacity:0;stroke:#840000;stroke-width:60;stroke-linecap:round;stroke-linejoin:round;stroke-opacity:1"
         d="m 52000,35000 v 462.638 h 3258.504 l 400,-462.638 -400,-462.638 H 52000 Z"
         id="path1650" />
    </g>
    <g
       style="fill:#009600;fill-opacity:0;stroke:#009600;stroke-width:60;stroke-linecap:round;stroke-linejoin:round;stroke-opacity:1"
       id="g1664">
      <path
         d="m 50000,32500 v 1000"
         id="path1654" />
      <path
         d="m 50000,29000 v 500"
         id="path1656" />
      <path
         d="m 50000,36500 v 1000"
         id="path1658" />
      <path
         d="m 50000,40500 v 500"
         id="path1660" />
      <path
         d="m 51500,35000 h 500"
         id="path1662" />
    </g>
  </g>
</svg>
