<?xml version="1.0" encoding="UTF-8" standalone="no"?>
<svg
   xmlns:dc="http://purl.org/dc/elements/1.1/"
   xmlns:cc="http://creativecommons.org/ns#"
   xmlns:rdf="http://www.w3.org/1999/02/22-rdf-syntax-ns#"
   xmlns:svg="http://www.w3.org/2000/svg"
   xmlns="http://www.w3.org/2000/svg"
   xmlns:sodipodi="http://sodipodi.sourceforge.net/DTD/sodipodi-0.dtd"
   xmlns:inkscape="http://www.inkscape.org/namespaces/inkscape"
   version="1.1"
   width="176.2937"
   height="352"
   viewBox="0 0 18363.927 36666.67"
   id="svg1666"
   sodipodi:docname="pot_offset.svg"
   inkscape:version="1.0.2 (e86c870879, 2021-01-15)">
  <metadata
     id="metadata1672">
    <rdf:RDF>
      <cc:Work
         rdf:about="">
        <dc:format>image/svg+xml</dc:format>
        <dc:type
           rdf:resource="http://purl.org/dc/dcmitype/StillImage" />
        <dc:title>SVG Picture created as Schematic.svg date 2021/11/17 14:02:31 </dc:title>
      </cc:Work>
    </rdf:RDF>
  </metadata>
  <defs
     id="defs1670" />
  <sodipodi:namedview
     pagecolor="#f5f4ef"
     bordercolor="#666666"
     borderopacity="1"
     objecttolerance="10"
     gridtolerance="10"
     guidetolerance="10"
     inkscape:pageopacity="1"
     inkscape:pageshadow="2"
     inkscape:window-width="2556"
     inkscape:window-height="1383"
     id="namedview1668"
     showgrid="false"
     lock-margins="true"
     fit-margin-top="16"
     fit-margin-left="16"
     fit-margin-right="16"
     fit-margin-bottom="16"
     units="px"
     inkscape:zoom="1.059242"
     inkscape:cx="268.29947"
     inkscape:cy="223.50632"
     inkscape:window-x="0"
     inkscape:window-y="0"
     inkscape:window-maximized="1"
     inkscape:current-layer="svg1666"
     inkscape:document-rotation="0" />
  <title
     id="title860">SVG Picture created as Schematic.svg date 2021/11/17 14:02:31 </title>
  <desc
     id="desc862">Picture generated by Eeschema-SVG </desc>
  <g
     id="g2393"
     transform="translate(47323.895,-18375.678)">
    <g
       style="fill:#000000;fill-opacity:1;stroke:#000000;stroke-linecap:round;stroke-linejoin:round;stroke-opacity:1"
       id="g1170" />
    <g
       style="fill:#840000;fill-opacity:0;stroke:#840000;stroke-width:0;stroke-linecap:round;stroke-linejoin:round;stroke-opacity:1"
       id="g1172" />
    <g
       style="fill:#840000;fill-opacity:0;stroke:#840000;stroke-width:118.11;stroke-linecap:round;stroke-linejoin:round;stroke-opacity:1"
       id="g1684">
      <text
         x="70079.609"
         y="71164.25"
         textLength="60"
         font-size="787.402px"
         lengthAdjust="spacingAndGlyphs"
         text-anchor="start"
         opacity="0"
         id="text1678" />
      <g
         class="stroked-text"
         id="g1682">
        <desc
           id="desc1680" />
      </g>
    </g>
    <g
       style="fill:#006464;fill-opacity:0;stroke:#006464;stroke-width:62.5197;stroke-linecap:round;stroke-linejoin:round;stroke-opacity:1"
       id="g1938" />
    <g
       style="fill:#006464;fill-opacity:0;stroke:#006464;stroke-width:60;stroke-linecap:round;stroke-linejoin:round;stroke-opacity:1"
       id="g1940" />
    <g
       id="g2651"
       transform="matrix(1.8422924,0,0,1.8422924,-133221.14,-28218.346)">
      <g
         style="fill:#840000;fill-opacity:0;stroke:#840000;stroke-width:100;stroke-linecap:round;stroke-linejoin:round;stroke-opacity:1"
         id="g1718"
         transform="translate(-4.2759432e-4,-2.759363e-4)">
        <circle
           cx="50000"
           cy="27750"
           r="750"
           id="circle1716" />
      </g>
      <path
         style="fill:none;fill-opacity:0;stroke:#840000;stroke-width:200;stroke-linecap:round;stroke-linejoin:round;stroke-opacity:1"
         d="m 49550,27750 h 900"
         id="path1720"
         transform="translate(-4.2759432e-4,-2.759363e-4)" />
      <g
         style="fill:#840000;fill-opacity:0;stroke:#840000;stroke-width:60;stroke-linecap:round;stroke-linejoin:round;stroke-opacity:1"
         id="g1726"
         transform="translate(-4.2759432e-4,-2.759363e-4)">
        <path
           style="fill:none;fill-opacity:0;stroke:#840000;stroke-width:60;stroke-linecap:round;stroke-linejoin:round;stroke-opacity:1"
           d="m 50000,29000 v -500"
           id="path1724" />
      </g>
      <g
         style="fill:#840000;fill-opacity:0;stroke:#840000;stroke-width:200;stroke-linecap:round;stroke-linejoin:round;stroke-opacity:1"
         id="g1730"
         transform="translate(-4.2759432e-4,-2.759363e-4)">
        <path
           style="fill:none;fill-opacity:0;stroke:#840000;stroke-width:200;stroke-linecap:round;stroke-linejoin:round;stroke-opacity:1"
           d="m 50000,28200 v -900"
           id="path1728" />
      </g>
      <g
         style="fill:#006464;fill-opacity:0;stroke:#006464;stroke-width:60;stroke-linecap:round;stroke-linejoin:round;stroke-opacity:1"
         id="g1750"
         transform="translate(-4.2759432e-4,-2.759363e-4)">
        <text
           x="50000"
           y="26750"
           textLength="2107.6377"
           font-size="666.654px"
           lengthAdjust="spacingAndGlyphs"
           text-anchor="middle"
           opacity="0"
           id="text1734">+VDC</text>
        <g
           class="stroked-text"
           id="g1748">
          <desc
             id="desc1736">+VDC</desc>
          <path
             d="m 49095,26535 h 381"
             id="path1738" />
          <path
             d="m 49285,26726 v -381"
             id="path1740" />
          <path
             d="m 49642,26226 167,500 167,-500"
             id="path1742" />
          <path
             d="m 50142,26726 v -500 h 119 l 72,24 47,47 24,48 24,95 v 71 l -24,96 -24,47 -47,48 -72,24 h -119"
             id="path1744" />
          <path
             d="m 50928,26678 -24,24 -71,24 h -48 l -71,-24 -48,-48 -24,-47 -23,-96 v -71 l 23,-95 24,-48 48,-47 71,-24 h 48 l 71,24 24,23"
             id="path1746" />
        </g>
      </g>
      <g
         style="fill:#006464;fill-opacity:0;stroke:#006464;stroke-width:60;stroke-linecap:round;stroke-linejoin:round;stroke-opacity:1"
         id="g1784">
        <g
           id="g1754" />
        <g
           style="fill:#840000;fill-opacity:0;stroke:#840000;stroke-width:60;stroke-linecap:round;stroke-linejoin:round;stroke-opacity:1"
           id="g1756" />
        <g
           style="fill:#840000;fill-opacity:0;stroke:#840000;stroke-width:100;stroke-linecap:round;stroke-linejoin:round;stroke-opacity:1"
           id="g1760">
          <rect
             x="49600"
             y="30000"
             width="800"
             height="2000"
             rx="0.000000"
             id="rect1758" />
        </g>
        <g
           style="fill:#840000;fill-opacity:0;stroke:#840000;stroke-width:60;stroke-linecap:round;stroke-linejoin:round;stroke-opacity:1"
           id="g1766">
          <path
             d="m 50000,32000 v 500"
             id="path1762" />
          <path
             d="m 50000,30000 v -500"
             id="path1764" />
        </g>
        <g
           style="fill:#006464;fill-opacity:0;stroke:#006464;stroke-width:60;stroke-linecap:round;stroke-linejoin:round;stroke-opacity:1"
           id="g1782">
          <text
             x="48480.629"
             y="31499.922"
             textLength="1036.1812"
             font-size="666.654px"
             lengthAdjust="spacingAndGlyphs"
             text-anchor="middle"
             opacity="0"
             id="text1768">R1</text>
          <g
             class="stroked-text"
             id="g1780">
            <desc
               id="desc1770">R1</desc>
            <path
               d="m 48397,31476 -167,-239"
               id="path1772" />
            <path
               d="m 48111,31476 v -500 h 191 l 47,23 24,24 24,48 v 71 l -24,48 -24,24 -47,23 h -191"
               id="path1774" />
            <path
               d="m 48873,31476 h -286"
               id="path1776" />
            <path
               d="m 48730,31476 v -500 l -48,71 -47,48 -48,23"
               id="path1778" />
          </g>
        </g>
      </g>
      <g
         style="fill:#006464;fill-opacity:0;stroke:#006464;stroke-width:60;stroke-linecap:round;stroke-linejoin:round;stroke-opacity:1"
         id="g1814">
        <g
           id="g1786" />
        <g
           style="fill:#840000;fill-opacity:0;stroke:#840000;stroke-width:60;stroke-linecap:round;stroke-linejoin:round;stroke-opacity:1"
           id="g1788" />
        <g
           style="fill:#840000;fill-opacity:0;stroke:#840000;stroke-width:100;stroke-linecap:round;stroke-linejoin:round;stroke-opacity:1"
           id="g1792">
          <rect
             x="49600"
             y="38000"
             width="800"
             height="2000"
             rx="0.000000"
             id="rect1790" />
        </g>
        <g
           style="fill:#840000;fill-opacity:0;stroke:#840000;stroke-width:60;stroke-linecap:round;stroke-linejoin:round;stroke-opacity:1"
           id="g1798">
          <path
             d="m 50000,40000 v 500"
             id="path1794" />
          <path
             d="m 50000,38000 v -500"
             id="path1796" />
        </g>
        <g
           style="fill:#006464;fill-opacity:0;stroke:#006464;stroke-width:60;stroke-linecap:round;stroke-linejoin:round;stroke-opacity:1"
           id="g1812">
          <text
             x="48480.629"
             y="39499.922"
             textLength="1036.1812"
             font-size="666.654px"
             lengthAdjust="spacingAndGlyphs"
             text-anchor="middle"
             opacity="0"
             id="text1800">R2</text>
          <g
             class="stroked-text"
             id="g1810">
            <desc
               id="desc1802">R2</desc>
            <path
               d="m 48397,39476 -167,-239"
               id="path1804" />
            <path
               d="m 48111,39476 v -500 h 191 l 47,23 24,24 24,48 v 71 l -24,48 -24,24 -47,23 h -191"
               id="path1806" />
            <path
               d="m 48587,39023 24,-24 48,-23 h 119 l 47,23 24,24 24,48 v 47 l -24,72 -286,286 h 310"
               id="path1808" />
          </g>
        </g>
      </g>
      <g
         style="fill:#006464;fill-opacity:0;stroke:#006464;stroke-width:60;stroke-linecap:round;stroke-linejoin:round;stroke-opacity:1"
         id="g1848">
        <g
           id="g1816" />
        <g
           style="fill:#840000;fill-opacity:0;stroke:#840000;stroke-width:60;stroke-linecap:round;stroke-linejoin:round;stroke-opacity:1"
           id="g1818" />
        <g
           style="fill:#840000;fill-opacity:0;stroke:#840000;stroke-width:100;stroke-linecap:round;stroke-linejoin:round;stroke-opacity:1"
           id="g1822">
          <circle
             cx="50000"
             cy="42250"
             r="750"
             id="circle1820" />
        </g>
        <g
           style="fill:#840000;fill-opacity:0;stroke:#840000;stroke-width:200;stroke-linecap:round;stroke-linejoin:round;stroke-opacity:1"
           id="g1826">
          <path
             style="fill:none;fill-opacity:0;stroke:#840000;stroke-width:200;stroke-linecap:round;stroke-linejoin:round;stroke-opacity:1"
             d="m 50450,42250 h -900"
             id="path1824" />
        </g>
        <g
           style="fill:#840000;fill-opacity:0;stroke:#840000;stroke-width:60;stroke-linecap:round;stroke-linejoin:round;stroke-opacity:1"
           id="g1830">
          <path
             style="fill:none;fill-opacity:0;stroke:#840000;stroke-width:60;stroke-linecap:round;stroke-linejoin:round;stroke-opacity:1"
             d="m 50000,41000 v 500"
             id="path1828" />
        </g>
        <g
           style="fill:#006464;fill-opacity:0;stroke:#006464;stroke-width:60;stroke-linecap:round;stroke-linejoin:round;stroke-opacity:1"
           id="g1846">
          <text
             x="50000"
             y="44249.961"
             textLength="2107.6377"
             font-size="666.654px"
             lengthAdjust="spacingAndGlyphs"
             text-anchor="middle"
             opacity="0"
             id="text1832">-VDC</text>
          <g
             class="stroked-text"
             id="g1844">
            <desc
               id="desc1834">-VDC</desc>
            <path
               d="m 49095,44035 h 381"
               id="path1836" />
            <path
               d="m 49642,43726 167,500 167,-500"
               id="path1838" />
            <path
               d="m 50142,44226 v -500 h 119 l 72,23 47,48 24,48 24,95 v 71 l -24,96 -24,47 -47,48 -72,24 h -119"
               id="path1840" />
            <path
               d="m 50928,44178 -24,24 -71,24 h -48 l -71,-24 -48,-48 -24,-47 -23,-96 v -71 l 23,-95 24,-48 48,-48 71,-23 h 48 l 71,23 24,24"
               id="path1842" />
          </g>
        </g>
      </g>
      <g
         style="fill:#006464;fill-opacity:0;stroke:#006464;stroke-width:60;stroke-linecap:round;stroke-linejoin:round;stroke-opacity:1"
         id="g1936">
        <g
           id="g1850" />
        <g
           style="fill:#840000;fill-opacity:0;stroke:#840000;stroke-width:60;stroke-linecap:round;stroke-linejoin:round;stroke-opacity:1"
           id="g1852" />
        <g
           style="fill:#840000;fill-opacity:0;stroke:#840000;stroke-width:100;stroke-linecap:round;stroke-linejoin:round;stroke-opacity:1"
           id="g1856">
          <rect
             x="49600"
             y="34000"
             width="800"
             height="2000"
             rx="0.000000"
             id="rect1854" />
        </g>
        <g
           style="fill:#840000;fill-opacity:0;stroke:#840000;stroke-width:60;stroke-linecap:round;stroke-linejoin:round;stroke-opacity:1"
           id="g1860">
          <path
             style="fill:none;fill-opacity:0;stroke:#840000;stroke-width:60;stroke-linecap:round;stroke-linejoin:round;stroke-opacity:1"
             d="m 51000,35000 h -400"
             id="path1858" />
        </g>
        <g
           style="fill:#840000;fill-opacity:1;stroke:#840000;stroke-width:60;stroke-linecap:round;stroke-linejoin:round;stroke-opacity:1"
           id="g1864">
          <path
             style="fill:#840000;fill-opacity:1;fill-rule:evenodd;stroke:#840000;stroke-width:60;stroke-linecap:round;stroke-linejoin:round;stroke-opacity:1"
             d="m 50450,35000 450,-200 v 400 z"
             id="path1862" />
        </g>
        <g
           style="fill:#840000;fill-opacity:0;stroke:#840000;stroke-width:60;stroke-linecap:round;stroke-linejoin:round;stroke-opacity:1"
           id="g1868">
          <path
             d="m 50000,34000 v -500"
             id="path1866" />
        </g>
        <g
           style="fill:#a90000;fill-opacity:0;stroke:#a90000;stroke-width:60;stroke-linecap:round;stroke-linejoin:round;stroke-opacity:1"
           id="g1882">
          <g
             transform="rotate(-90,49900,33750)"
             id="g1872">
            <text
               x="49900"
               y="33750"
               textLength="536.18109"
               font-size="666.654px"
               lengthAdjust="spacingAndGlyphs"
               text-anchor="middle"
               opacity="0"
               id="text1870">1</text>
          </g>
          <g
             class="stroked-text"
             id="g1880">
            <desc
               id="desc1874">1</desc>
            <path
               d="m 49876,33607 v 285"
               id="path1876" />
            <path
               d="m 49876,33750 h -500 l 71,47 48,48 24,47"
               id="path1878" />
          </g>
        </g>
        <g
           style="fill:#840000;fill-opacity:0;stroke:#840000;stroke-width:60;stroke-linecap:round;stroke-linejoin:round;stroke-opacity:1"
           id="g1886">
          <path
             d="m 51000,35000 h 500"
             id="path1884" />
        </g>
        <g
           style="fill:#a90000;fill-opacity:0;stroke:#a90000;stroke-width:60;stroke-linecap:round;stroke-linejoin:round;stroke-opacity:1"
           id="g1896">
          <text
             x="51250"
             y="34900"
             textLength="536.18109"
             font-size="666.654px"
             lengthAdjust="spacingAndGlyphs"
             text-anchor="middle"
             opacity="0"
             id="text1888">2</text>
          <g
             class="stroked-text"
             id="g1894">
            <desc
               id="desc1890">2</desc>
            <path
               d="m 51107,34423 23,-23 48,-24 h 119 l 48,24 24,23 23,48 v 48 l -23,71 -286,286 h 309"
               id="path1892" />
          </g>
        </g>
        <g
           style="fill:#840000;fill-opacity:0;stroke:#840000;stroke-width:60;stroke-linecap:round;stroke-linejoin:round;stroke-opacity:1"
           id="g1900">
          <path
             d="m 50000,36000 v 500"
             id="path1898" />
        </g>
        <g
           style="fill:#a90000;fill-opacity:0;stroke:#a90000;stroke-width:60;stroke-linecap:round;stroke-linejoin:round;stroke-opacity:1"
           id="g1912">
          <g
             transform="rotate(-90,49900,36250)"
             id="g1904">
            <text
               x="49900"
               y="36250"
               textLength="536.18109"
               font-size="666.654px"
               lengthAdjust="spacingAndGlyphs"
               text-anchor="middle"
               opacity="0"
               id="text1902">3</text>
          </g>
          <g
             class="stroked-text"
             id="g1910">
            <desc
               id="desc1906">3</desc>
            <path
               d="m 49376,36416 v -309 l 190,166 v -71 l 24,-48 24,-24 47,-23 h 119 l 48,23 24,24 24,48 v 143 l -24,47 -24,24"
               id="path1908" />
          </g>
        </g>
        <g
           style="fill:#006464;fill-opacity:0;stroke:#006464;stroke-width:60;stroke-linecap:round;stroke-linejoin:round;stroke-opacity:1"
           id="g1934">
          <text
             x="48261.574"
             y="35499.961"
             textLength="1474.2914"
             font-size="666.654px"
             lengthAdjust="spacingAndGlyphs"
             text-anchor="middle"
             opacity="0"
             id="text1914">R_{var}</text>
          <g
             class="stroked-text"
             id="g1932">
            <desc
               id="desc1916">R_{var}</desc>
            <path
               d="m 47959,35476 -167,-238"
               id="path1918" />
            <path
               d="m 47673,35476 v -500 h 190 l 48,23 24,24 24,48 v 71 l -24,48 -24,24 -48,24 h -190"
               id="path1920" />
            <path
               d="m 48111,35264 95,266 96,-266"
               id="path1922" />
            <path
               d="m 48625,35530 v -209 l -19,-38 -38,-19 h -76 l -38,19"
               id="path1924" />
            <path
               d="m 48625,35511 -38,19 h -95 l -38,-19 -19,-38 v -38 l 19,-38 38,-19 h 95 l 38,-19"
               id="path1926" />
            <path
               d="m 48816,35530 v -266"
               id="path1928" />
            <path
               d="m 48816,35340 19,-38 19,-19 38,-19 h 38"
               id="path1930" />
          </g>
        </g>
      </g>
      <g
         style="fill:#840000;fill-opacity:0;stroke:#840000;stroke-width:60;stroke-linecap:round;stroke-linejoin:round;stroke-opacity:1"
         id="g1966">
        <text
           x="52150"
           y="35250"
           textLength="2893.3464"
           font-size="666.654px"
           lengthAdjust="spacingAndGlyphs"
           text-anchor="start"
           opacity="0"
           id="text1942">OUTPUT</text>
        <g
           class="stroked-text"
           id="g1962">
          <desc
             id="desc1944">OUTPUT</desc>
          <path
             d="m 52394,34726 h 95 l 48,24 47,47 24,95 v 167 l -24,95 -47,48 -48,24 h -95 l -48,-24 -47,-48 -24,-95 v -167 l 24,-95 47,-47 48,-24"
             id="path1946" />
          <path
             d="m 52822,34726 v 404 l 24,48 24,24 48,24 h 95 l 47,-24 24,-24 24,-48 v -404"
             id="path1948" />
          <path
             d="m 53275,34726 h 285"
             id="path1950" />
          <path
             d="m 53418,35226 v -500"
             id="path1952" />
          <path
             d="m 53727,35226 v -500 h 191 l 47,24 24,23 24,48 v 71 l -24,48 -24,24 -47,24 h -191"
             id="path1954" />
          <path
             d="m 54227,34726 v 404 l 24,48 24,24 47,24 h 96 l 47,-24 24,-24 24,-48 v -404"
             id="path1956" />
          <path
             d="m 54680,34726 h 285"
             id="path1958" />
          <path
             d="m 54822,35226 v -500"
             id="path1960" />
        </g>
        <path
           style="fill:none;fill-opacity:0;stroke:#840000;stroke-width:60;stroke-linecap:round;stroke-linejoin:round;stroke-opacity:1"
           d="m 52000,35000 v 462.638 h 3258.504 l 400,-462.638 -400,-462.638 H 52000 Z"
           id="path1964" />
      </g>
      <g
         style="fill:#009600;fill-opacity:0;stroke:#009600;stroke-width:60;stroke-linecap:round;stroke-linejoin:round;stroke-opacity:1"
         id="g1978">
        <path
           d="m 50000,32500 v 1000"
           id="path1968" />
        <path
           d="m 50000,29000 v 500"
           id="path1970" />
        <path
           d="m 50000,36500 v 1000"
           id="path1972" />
        <path
           d="m 50000,40500 v 500"
           id="path1974" />
        <path
           d="m 51500,35000 h 500"
           id="path1976" />
      </g>
    </g>
  </g>
</svg>
